<svg xmlns="http://www.w3.org/2000/svg" width="408.397" height="541.543" viewBox="0 0 408.397 541.543"><defs><style>.a{fill:#b3dbc9;}.b{fill:#bce6d3;}.b,.c,.e,.g,.i,.j,.k,.m,.n,.o,.q,.r,.s,.t,.w{fill-rule:evenodd;}.c{fill:#fea7a8;}.d,.f,.h,.l,.u,.v{fill:none;}.d{stroke:#09072b;}.d,.f,.h,.l,.u,.v,.w{stroke-width:2px;}.e,.i{fill:#261a5e;}.f,.h,.u{stroke:#fff;}.g{fill:#f69800;}.h{opacity:0.5;}.h,.i{isolation:isolate;}.i{opacity:0.2;}.j,.w{fill:#003e8c;}.k{fill:#08234a;}.l,.w{stroke:#0f0b47;}.m,.p{fill:#0f0b47;}.n{fill:#fffcf8;}.o{fill:#e19394;}.q{fill:#dbd8ff;}.r{fill:#c2c0e7;}.s{fill:#3f38a2;}.t{fill:#363082;}.u,.v{stroke-linecap:round;}.v{stroke:#dbd8ff;}</style></defs><g transform="translate(-461.95 -205.029)"><g transform="translate(461.95 205.029)"><g transform="translate(118.331 250.597)"><circle class="a" cx="145.033" cy="145.033" r="145.033"/><path class="b" d="M1168.722,1301.463a144.507,144.507,0,0,1,97.741,37.881,145.044,145.044,0,0,1-222.708,180.8,145.062,145.062,0,0,1,124.967-218.676Z" transform="translate(-996.463 -1267.954)"/></g><g transform="translate(0 180.436)"><g transform="translate(0 299.847)"><path class="c" d="M722.415,2060.7l-40.918-2.145-1.787,34.1,40.918,2.146Z" transform="translate(-623.285 -2058.558)"/><path class="d" d="M550.708,2103.519q-5.634-23.293-13.633-21.51t15.3,27.135q-19.083-32.112-24.985-20.575c-1.884,3.681,4.551,12.662,22.636,20.84" transform="translate(-510.203 -2075.839)"/><path class="e" d="M561.241,2128.257l-48.926-13.473a35.657,35.657,0,0,1-15.994,15.035c-10.4,5.028-26.769,9.362-34.371,30.732l65.453.923,9.185-7.453.577,6.6,26.966.665Z" transform="translate(-461.95 -2100.214)"/><g transform="translate(26.307 23.736)"><line class="f" x1="15.808" y1="7.58" transform="translate(12.699)"/><line class="f" x1="15.808" y1="7.58" transform="translate(6.349 3.072)"/><line class="f" x1="15.808" y1="7.58" transform="translate(0 6.143)"/></g></g><g transform="translate(214.625 299.847)"><path class="c" d="M1518.164,2060.7l-40.918-2.145,7.969,34.1,40.918,2.145Z" transform="translate(-1428.789 -2058.557)"/><path class="d" d="M1379,2103.519q-5.633-23.293-13.632-21.51t15.3,27.135q-19.083-32.112-24.985-20.575c-1.884,3.681,4.551,12.662,22.636,20.84" transform="translate(-1338.493 -2075.839)"/><path class="e" d="M1389.531,2128.257l-48.926-13.473a35.657,35.657,0,0,1-15.994,15.035c-10.4,5.028-26.769,9.362-34.371,30.732l65.453.923,9.184-7.453.578,6.6,26.966.665Z" transform="translate(-1290.24 -2100.214)"/><g transform="translate(26.307 23.736)"><line class="f" x1="15.808" y1="7.58" transform="translate(12.699)"/><line class="f" x1="15.808" y1="7.58" transform="translate(6.349 3.072)"/><line class="f" x1="15.808" y1="7.58" transform="translate(0 6.143)"/></g></g><path class="g" d="M867.43,901.376l19.333,36.233a55.913,55.913,0,0,1,6.071,33.866,43.958,43.958,0,0,1-16.777,28.929l-55.8,42.868h0L898.2,1214.48H810.042L747.179,1085.31a104.718,104.718,0,0,1-9.89-57.639l.977-8.6h0l-40.98,4.487-16.1,190.926H598.006l20.129-217.307a73.615,73.615,0,0,1,15.291-38.531A47.335,47.335,0,0,1,668.3,940.51l91.425-4.7a32.763,32.763,0,0,0,29.769-23.543h0Z" transform="translate(-562.751 -901.376)"/><path class="h" d="M1391.757,973.544l10.709,25.735a34.613,34.613,0,0,1,2.056,19.715,28.279,28.279,0,0,1-9.942,16.693l-70.417,57.289a13.045,13.045,0,0,0-4.813,10.119,24.193,24.193,0,0,0,2.986,11.642l84.1,153.211h0" transform="translate(-1097.183 -954.844)"/><path class="i" d="M1406.9,1449.568l77.879,171.057-95.041-160.066Z" transform="translate(-1149.333 -1307.522)"/><path class="i" d="M1032.163,1109.719l-56.073,63.705-40.98,4.487-16.1,190.926,1.574-193.431,14.529-1.982Z" transform="translate(-800.575 -1055.733)"/><path class="h" d="M837.683,1384.058l9.533-189.537a15.707,15.707,0,0,1,8.91-13.381l106.367-50.877h0" transform="translate(-740.324 -1070.954)"/></g><path class="j" d="M1082.533,613.711l10.91,7.008q-32.862,11.519-63.3,11.519t-37.593-8.378v-10.15L982.97,622.4a29.011,29.011,0,0,1-25.195,6.957,47.95,47.95,0,0,1-24.651-13.281L883.3,565.744h0l25.484-30.9L953.161,573,981.6,516.6a29.159,29.159,0,0,1,19.72-15.339l2.291-.508a104.714,104.714,0,0,1,22.684-2.486h30.7a104.72,104.72,0,0,1,27.872,3.777l2.109.582a34.219,34.219,0,0,1,22.3,19.392l22.676,52.389q.424.981.869,1.952l5.517,12.066a24.858,24.858,0,0,1-2.338,24.727l-2.625,3.7a22.676,22.676,0,0,1-28.039,7.44l-22.793-10.582Z" transform="translate(-774.117 -422.285)"/><path class="k" d="M1304.942,863.271q31.426,12.119,49.328-4.619l.361-.341L1327.2,824.7l68.177,31.15,13.46,6.167c-21.908,7.679-46.014,12.066-66.3,12.066l-1.4,0q-29.2-.19-36.19-8.373Z" transform="translate(-1086.507 -664.135)"/><path class="k" d="M1161.649,615.807l3.734,17.755a17.685,17.685,0,0,0-7.135,10.269c-1.928,6.774.642,15.76,7.135,21.263l-3.846,35.8-9.47,8.591a29.011,29.011,0,0,1-25.195,6.957,47.95,47.95,0,0,1-14.177-5.276l-1.162-.82q21.02,6.717,29.292,2.339c15.7-8.309,17.422-19.2,17.422-33.587l-2.31-22.495a69.281,69.281,0,0,1-.063-13.514l.176-1.888a9.918,9.918,0,0,1,4.321-7.3l.277-.18a7.061,7.061,0,0,0,3.16-7.4Z" transform="translate(-943.214 -509.367)"/><path class="f" d="M1291.883,751.976q0,8.412,7.118,14l-3.734,35.7" transform="translate(-1076.832 -610.252)"/><path class="c" d="M1433.833,498.269a104.7,104.7,0,0,1,12.4.736q-10,20.141-28.651,20.14-20.156,0-25.639-20.274a104.124,104.124,0,0,1,11.2-.6Z" transform="translate(-1150.961 -422.285)"/><g transform="translate(230.352)"><path class="l" d="M1361.631,240.754q-7.483,6.352,5.549,23.621" transform="translate(-1356.837 -231.497)"/><path class="l" d="M1361.276,342.3q-9.957,11.445-10.344,30.793" transform="translate(-1350.932 -306.728)"/><path class="m" d="M1397.051,207.415q-17.87-6.672-31.691,5.315c-7.9-2.94-11.064,3.336-7.075,14.09l.226.6q1.433,3.735,5.543,13.18-7.813,9.81-9.372,31.25a15.621,15.621,0,0,0,5.7,4.69l1.136-8.8v9.347a41.685,41.685,0,0,0,12.641,3.011l1.428-5.408v5.54q3.591.3,7.737.3a108.247,108.247,0,0,0,29.059-3.894l-.65-5.141,1.93,4.777a107.507,107.507,0,0,0,12.316-4.416q-2.964-12.99-6.213-19.686-2.328-4.8-10.518-14.8C1409.244,217.331,1403.6,211.974,1397.051,207.415Z" transform="translate(-1353.71 -205.029)"/><path class="c" d="M1383.577,266.9l-.567,32.654a8.517,8.517,0,0,0,5.1,7.952,15.147,15.147,0,0,0,10.616.572l1.749-.55h0l-1.946,18.671a13.423,13.423,0,1,0,26.777,1.323q0-.667-.066-1.331l-2.558-25.742q-.222-2.238-.629-4.453l-1.238-6.74h0q7.236-5.01,5.1-9.454c-2.136-4.445-8.691-.416-8.691,1q-25.968-3.247-31.177-16.617A2.776,2.776,0,0,0,1383.577,266.9Z" transform="translate(-1374.697 -248.86)"/><path class="n" d="M1411.1,389.933l8.322-3.017q.75,3.624-2.236,4.959T1411.1,389.933Z" transform="translate(-1395.508 -339.786)"/><path class="o" d="M1457.767,398.558a41.341,41.341,0,0,1-12.684,8.527l-1.869,17.936Z" transform="translate(-1419.302 -348.411)"/><path class="n" d="M1522.175,358.8a2.817,2.817,0,1,1,2.833-2.817A2.825,2.825,0,0,1,1522.175,358.8Z" transform="translate(-1475.704 -314.782)"/><path class="l" d="M1527.566,328.8q.614-3.026-1.573-3.329t-3.266,3.329" transform="translate(-1478.211 -294.242)"/><path class="l" d="M1404.956,334.032q-.111,6.3-2.718,7.885c-2.607,1.581,0,6.261,4.088,4.362" transform="translate(-1388.169 -300.605)"/><ellipse class="p" cx="1.7" cy="1.69" rx="1.7" ry="1.69" transform="translate(21.676 33.878)"/><path class="m" d="M1431.2,303.19l6.833,1.326a1.032,1.032,0,0,1,.817,1.21l0,.019a1.072,1.072,0,0,1-1.253.828l-6.834-1.326a1.032,1.032,0,0,1-.816-1.21l0-.019A1.072,1.072,0,0,1,1431.2,303.19Z" transform="translate(-1409.452 -277.74)"/><circle class="l" cx="4.712" cy="4.712" r="4.712" transform="translate(7.468 30.167)"/><circle class="l" cx="4.712" cy="4.712" r="4.712" transform="translate(18.987 30.167)"/><path class="m" d="M1389.48,303.19l-6.833,1.326a1.032,1.032,0,0,0-.817,1.21l0,.019a1.072,1.072,0,0,0,1.253.828l6.834-1.326a1.032,1.032,0,0,0,.816-1.21l0-.019A1.072,1.072,0,0,0,1389.48,303.19Z" transform="translate(-1373.81 -277.74)"/><ellipse class="p" cx="1.7" cy="1.69" rx="1.7" ry="1.69" transform="translate(10.344 33.878)"/><path class="l" d="M1393.708,261.316q6.086,17.361,31.446,17.362" transform="translate(-1382.624 -246.731)"/><line class="l" x2="1.32" transform="translate(17.143 34.88)"/><line class="l" y1="3.678" x2="14.119" transform="translate(28.411 31.202)"/></g><g transform="translate(186.692 100.619)"><path class="c" d="M1245.924,624.707l-.276-.1a72.844,72.844,0,0,1-18.867-10.57A86.065,86.065,0,0,0,1208.1,603l-21.9-9.439a2.7,2.7,0,0,0-3.763,2.476,6.488,6.488,0,0,0,3.7,5.858l20.445,9.731h0l-3.74,10.7a14.117,14.117,0,0,0-.106,9,9.864,9.864,0,0,0,5.9,6.2l7.677,2.9a5.66,5.66,0,0,0,6.805-2.306h0q3.162,6.041,12.3,8.111T1245.924,624.707Z" transform="translate(-1182.438 -593.343)"/><path class="l" d="M1215.443,632.293l15.592,8.193-1.711,5.29,1.711,1.019" transform="translate(-1206.891 -622.2)"/><line class="l" x2="3.804" y2="2.061" transform="translate(20.34 28.975)"/><line class="l" x2="3.804" y2="2.061" transform="translate(20.34 34.21)"/><line class="l" x1="8.763" y1="3.669" transform="translate(31.918 41.105)"/></g><path class="k" d="M1478.957,700.774l-12.781,16.164q-43.1-5-15.414-6.9t38.374-30.793l14.615,30.793Z" transform="translate(-1186.52 -556.368)"/><g transform="translate(93.538 59.271)"><path class="q" d="M829.358,447.847l1.71-5.569A4.189,4.189,0,0,1,835.9,439.4l29.131,5.852h0l41.5-9.009a4.189,4.189,0,0,1,4.691,2.336l19.7,42.641a4.188,4.188,0,0,1-.059,3.637l-2.915,5.8h0l-21.664-44.255-37.627,7.428Z" transform="translate(-827.694 -435.533)"/><path class="r" d="M1134.51,438.763l19.7,42.641a4.188,4.188,0,0,1-.059,3.637l-2.852,5.678-20.556-45.978.688-8.346A4.188,4.188,0,0,1,1134.51,438.763Z" transform="translate(-1050.987 -435.715)"/><path class="s" d="M823.078,465.02l15.5,39.886h0l44.669,13.668,39.827-8.05a2.094,2.094,0,0,0,1.475-2.956l-21.322-44.6a2.094,2.094,0,0,0-2.241-1.161L861.14,468.6h0L825.4,462.2a2.094,2.094,0,0,0-2.321,2.82Z" transform="translate(-822.935 -454.52)"/><path class="t" d="M1008.85,461.808a2.1,2.1,0,0,1,2.16,1.007l.081.154,21.322,44.6a2.094,2.094,0,0,1-1.323,2.919l-.152.037-39.827,8.049-22.585-50.061.479.087Z" transform="translate(-930.801 -454.52)"/><line class="u" x2="29.029" y2="5.323" transform="translate(5.639 15.603)"/><line class="u" x2="29.029" y2="5.323" transform="translate(7.733 22.933)"/><line class="u" x2="29.029" y2="5.323" transform="translate(10.875 30.263)"/><path class="f" d="M838.664,448.193l33.65,6.31,42.861-8.62,22.184,46.4" transform="translate(-834.589 -442.745)"/><path class="v" d="M851.718,433.769l28.433,10.142-30.157-7.921" transform="translate(-842.982 -433.769)"/></g><path class="w" d="M1461.988,725.076,1397.7,699.094a3.141,3.141,0,0,0-4.09,1.735c-.017.042-.033.084-.048.127l-9.817,27.683a3.141,3.141,0,0,0,1.7,3.926l74,32.513h0" transform="translate(-1144.756 -570.902)"/><g transform="translate(92.043 72.123)"><path class="c" d="M839.513,548.423,824.447,532.75a27.218,27.218,0,0,1-6.392-10.859,20.07,20.07,0,0,1,.17-12.325l8.362-24.745a2.137,2.137,0,0,1,3.6-.757,7.123,7.123,0,0,1,1.722,6.222L827.867,510.2h0l6.721-19.931a2.322,2.322,0,0,1,3.6-1.114,5.181,5.181,0,0,1,1.982,5.089L836.4,514.5h0l7.557-16.871a2.429,2.429,0,0,1,3.438-1.106,3.5,3.5,0,0,1,1.612,3.962l-4.993,18h0l6.037-9.6a2.128,2.128,0,0,1,2.833-.729,2.323,2.323,0,0,1,1.044,2.858l-4.2,11.026h0q3.128-.577,7.134,6.05Z" transform="translate(-817.168 -483.367)"/><line class="l" x1="4.563" y2="21.629" transform="translate(9.766 9.165)"/><line class="l" x1="3.524" y2="18.939" transform="translate(18.763 14.713)"/><line class="l" x1="3.576" y2="12.779" transform="translate(26.433 23.595)"/><line class="l" x1="3.172" y2="8.457" transform="translate(32.041 31.539)"/></g><path class="f" d="M1391.939,500.688Q1396,518.58,1414,520.938t32.229-20.14" transform="translate(-1150.961 -424.077)"/><path class="f" d="M1491.812,679.247l14.615,31.294-62.882-25.534" transform="translate(-1189.196 -556.369)"/></g></g></svg>